<svg width="468" height="38" viewBox="0 0 468 38" fill="none" xmlns="http://www.w3.org/2000/svg">
<path d="M18.5 38C28.7173 38 37 29.7173 37 19.5C37 9.28273 28.7173 1 18.5 1C8.28273 1 0 9.28273 0 19.5C0 29.7173 8.28273 38 18.5 38Z" fill="#EEEEEE"/>
<mask id="mask0_209_2716" style="mask-type:luminance" maskUnits="userSpaceOnUse" x="10" y="11" width="17" height="17">
<path d="M26.8125 11.1875H10.1875V27.8125H26.8125V11.1875Z" fill="white"/>
</mask>
<g mask="url(#mask0_209_2716)">
<path d="M18.5 11.1875C13.9092 11.1875 10.1875 14.9092 10.1875 19.5C10.1875 23.3982 12.8714 26.6694 16.492 27.5678V22.0403H14.778V19.5H16.492V18.4054C16.492 15.5762 17.7725 14.2648 20.5502 14.2648C21.0769 14.2648 21.9856 14.3682 22.3573 14.4713V16.7738C22.1612 16.7532 21.8203 16.7429 21.3971 16.7429C20.0342 16.7429 19.5075 17.2593 19.5075 18.6016V19.5H22.2227L21.7562 22.0403H19.5075V27.7517C23.6235 27.2546 26.8128 23.75 26.8128 19.5C26.8125 14.9092 23.0908 11.1875 18.5 11.1875Z" fill="#141414"/>
</g>
<path d="M104.5 38C114.717 38 123 29.7173 123 19.5C123 9.28273 114.717 1 104.5 1C94.2827 1 86 9.28273 86 19.5C86 29.7173 94.2827 38 104.5 38Z" fill="#EEEEEE"/>
<path d="M108.882 12.5059H111.219L106.114 18.341L112.119 26.2811H107.417L103.734 21.4655L99.5191 26.2811H97.1809L102.641 20.0399L96.8799 12.5059H101.702L105.031 16.9076L108.882 12.5059ZM108.062 24.8824H109.357L100.998 13.8312H99.6088L108.062 24.8824Z" fill="#141414"/>
<path d="M190.5 38C200.717 38 209 29.7173 209 19.5C209 9.28273 200.717 1 190.5 1C180.283 1 172 9.28273 172 19.5C172 29.7173 180.283 38 190.5 38Z" fill="#EEEEEE"/>
<mask id="mask1_209_2716" style="mask-type:luminance" maskUnits="userSpaceOnUse" x="182" y="11" width="17" height="17">
<path d="M198.812 11.1875H182.188V27.8125H198.812V11.1875Z" fill="white"/>
</mask>
<g mask="url(#mask1_209_2716)">
<path d="M190.5 12.6844C192.721 12.6844 192.984 12.6941 193.858 12.7331C194.669 12.7688 195.108 12.9052 195.4 13.0188C195.786 13.1682 196.066 13.35 196.354 13.639C196.647 13.9313 196.825 14.2073 196.975 14.5937C197.088 14.8859 197.225 15.3275 197.26 16.136C197.299 17.0127 197.309 17.2758 197.309 19.4935C197.309 21.7145 197.299 21.9775 197.26 22.851C197.225 23.6627 197.088 24.1011 196.975 24.3933C196.825 24.7797 196.643 25.059 196.354 25.348C196.062 25.6402 195.786 25.8188 195.4 25.9682C195.108 26.0818 194.666 26.2182 193.858 26.2539C192.981 26.2929 192.718 26.3026 190.5 26.3026C188.279 26.3026 188.016 26.2929 187.142 26.2539C186.331 26.2182 185.892 26.0818 185.6 25.9682C185.214 25.8188 184.935 25.637 184.646 25.348C184.353 25.0557 184.175 24.7797 184.025 24.3933C183.912 24.1011 183.775 23.6595 183.74 22.851C183.701 21.9743 183.691 21.7113 183.691 19.4935C183.691 17.2725 183.701 17.0095 183.74 16.136C183.775 15.3243 183.912 14.8859 184.025 14.5937C184.175 14.2073 184.357 13.928 184.646 13.639C184.938 13.3468 185.214 13.1682 185.6 13.0188C185.892 12.9052 186.334 12.7688 187.142 12.7331C188.016 12.6941 188.279 12.6844 190.5 12.6844ZM190.5 11.1875C188.243 11.1875 187.961 11.1972 187.074 11.2362C186.191 11.2752 185.584 11.418 185.058 11.6226C184.509 11.8369 184.045 12.1194 183.584 12.5837C183.119 13.0448 182.837 13.5092 182.623 14.0547C182.418 14.5839 182.275 15.1879 182.236 16.0711C182.197 16.9608 182.188 17.2433 182.188 19.5C182.188 21.7567 182.197 22.0392 182.236 22.9257C182.275 23.8089 182.418 24.4161 182.623 24.9421C182.837 25.4908 183.119 25.9552 183.584 26.4163C184.045 26.8773 184.509 27.1631 185.055 27.3741C185.584 27.5787 186.188 27.7216 187.071 27.7605C187.958 27.7995 188.24 27.8093 190.497 27.8093C192.753 27.8093 193.036 27.7995 193.922 27.7605C194.806 27.7216 195.413 27.5787 195.939 27.3741C196.484 27.1631 196.949 26.8773 197.41 26.4163C197.871 25.9552 198.157 25.4908 198.368 24.9453C198.572 24.4161 198.715 23.8121 198.754 22.9289C198.793 22.0425 198.803 21.76 198.803 19.5032C198.803 17.2465 198.793 16.964 198.754 16.0776C198.715 15.1944 198.572 14.5872 198.368 14.0612C198.163 13.5092 197.881 13.0448 197.416 12.5837C196.955 12.1227 196.491 11.8369 195.945 11.6259C195.416 11.4213 194.812 11.2784 193.929 11.2395C193.039 11.1972 192.757 11.1875 190.5 11.1875Z" fill="#141414"/>
<path d="M190.5 15.2305C188.143 15.2305 186.23 17.143 186.23 19.5004C186.23 21.8578 188.143 23.7703 190.5 23.7703C192.858 23.7703 194.77 21.8578 194.77 19.5004C194.77 17.143 192.858 15.2305 190.5 15.2305ZM190.5 22.2701C188.971 22.2701 187.731 21.0297 187.731 19.5004C187.731 17.971 188.971 16.7306 190.5 16.7306C192.03 16.7306 193.27 17.971 193.27 19.5004C193.27 21.0297 192.03 22.2701 190.5 22.2701Z" fill="#141414"/>
<path d="M195.936 15.0613C195.936 15.6133 195.488 16.0582 194.939 16.0582C194.387 16.0582 193.942 15.6101 193.942 15.0613C193.942 14.5093 194.39 14.0645 194.939 14.0645C195.488 14.0645 195.936 14.5125 195.936 15.0613Z" fill="#141414"/>
</g>
<path d="M276.5 38C286.717 38 295 29.7173 295 19.5C295 9.28273 286.717 1 276.5 1C266.283 1 258 9.28273 258 19.5C258 29.7173 266.283 38 276.5 38Z" fill="#EEEEEE"/>
<mask id="mask2_209_2716" style="mask-type:luminance" maskUnits="userSpaceOnUse" x="268" y="11" width="17" height="17">
<path d="M284.812 11.1875H268.188V27.8125H284.812V11.1875Z" fill="white"/>
</mask>
<g mask="url(#mask2_209_2716)">
<path d="M276.5 11.1875C271.909 11.1875 268.188 14.9086 268.188 19.5C268.188 23.0231 270.379 26.0299 273.47 27.241C273.399 26.5819 273.331 25.5753 273.5 24.8577C273.652 24.2083 274.474 20.7274 274.474 20.7274C274.474 20.7274 274.224 20.2306 274.224 19.4935C274.224 18.3375 274.893 17.4738 275.727 17.4738C276.435 17.4738 276.779 18.0063 276.779 18.646C276.779 19.3604 276.325 20.4254 276.091 21.4125C275.896 22.2405 276.507 22.9159 277.322 22.9159C278.799 22.9159 279.935 21.3573 279.935 19.1104C279.935 17.1199 278.507 15.7269 276.464 15.7269C274.1 15.7269 272.711 17.4998 272.711 19.3344C272.711 20.0488 272.987 20.8151 273.331 21.2307C273.399 21.3119 273.409 21.3865 273.389 21.4677C273.328 21.7307 273.185 22.2957 273.159 22.4094C273.123 22.562 273.039 22.5945 272.88 22.5198C271.841 22.036 271.191 20.5196 271.191 19.2987C271.191 16.675 273.097 14.269 276.682 14.269C279.565 14.269 281.806 16.3244 281.806 19.0714C281.806 21.9353 280 24.2407 277.494 24.2407C276.653 24.2407 275.86 23.8024 275.588 23.2861C275.588 23.2861 275.172 24.8739 275.071 25.2635C274.883 25.9844 274.376 26.8903 274.039 27.4423C274.818 27.6826 275.643 27.8125 276.5 27.8125C281.091 27.8125 284.812 24.0914 284.812 19.5C284.812 14.9086 281.091 11.1875 276.5 11.1875Z" fill="#141414"/>
</g>
<path d="M362.5 38C372.717 38 381 29.7173 381 19.5C381 9.28273 372.717 1 362.5 1C352.283 1 344 9.28273 344 19.5C344 29.7173 352.283 38 362.5 38Z" fill="#EEEEEE"/>
<mask id="mask3_209_2716" style="mask-type:luminance" maskUnits="userSpaceOnUse" x="354" y="11" width="17" height="17">
<path d="M370.812 11.1875H354.188V27.8125H370.812V11.1875Z" fill="white"/>
</mask>
<g mask="url(#mask3_209_2716)">
<path d="M369.582 11.1875H355.415C354.736 11.1875 354.188 11.7233 354.188 12.3857V26.6111C354.188 27.2735 354.736 27.8125 355.415 27.8125H369.582C370.26 27.8125 370.812 27.2735 370.812 26.6143V12.3857C370.812 11.7233 370.26 11.1875 369.582 11.1875ZM359.12 25.3545H356.652V17.4186H359.12V25.3545ZM357.886 16.3374C357.094 16.3374 356.454 15.6977 356.454 14.9086C356.454 14.1196 357.094 13.4799 357.886 13.4799C358.675 13.4799 359.315 14.1196 359.315 14.9086C359.315 15.6944 358.675 16.3374 357.886 16.3374ZM368.354 25.3545H365.89V21.4969C365.89 20.578 365.874 19.3928 364.607 19.3928C363.325 19.3928 363.13 20.3962 363.13 21.432V25.3545H360.669V17.4186H363.032V18.5031H363.065C363.393 17.8797 364.198 17.2206 365.396 17.2206C367.893 17.2206 368.354 18.8636 368.354 21.0001V25.3545Z" fill="#141414"/>
</g>
<path d="M448.5 38C458.717 38 467 29.7173 467 19.5C467 9.28273 458.717 1 448.5 1C438.283 1 430 9.28273 430 19.5C430 29.7173 438.283 38 448.5 38Z" fill="#EEEEEE"/>
<mask id="mask4_209_2716" style="mask-type:luminance" maskUnits="userSpaceOnUse" x="440" y="11" width="17" height="17">
<path d="M456.812 11.1875H440.188V27.8125H456.812V11.1875Z" fill="white"/>
</mask>
<g mask="url(#mask4_209_2716)">
<path d="M456.647 16.1753C456.647 16.1753 456.485 15.0291 455.985 14.5258C455.351 13.8634 454.644 13.8601 454.319 13.8211C451.994 13.6523 448.503 13.6523 448.503 13.6523H448.497C448.497 13.6523 445.006 13.6523 442.681 13.8211C442.357 13.8601 441.649 13.8634 441.016 14.5258C440.516 15.0291 440.356 16.1753 440.356 16.1753C440.356 16.1753 440.188 17.5228 440.188 18.8671V20.127C440.188 21.4712 440.353 22.8188 440.353 22.8188C440.353 22.8188 440.515 23.965 441.012 24.4683C441.645 25.1307 442.477 25.108 442.847 25.1794C444.178 25.306 448.5 25.345 448.5 25.345C448.5 25.345 451.994 25.3385 454.319 25.1729C454.644 25.1339 455.351 25.1307 455.985 24.4683C456.485 23.965 456.647 22.8188 456.647 22.8188C456.647 22.8188 456.812 21.4745 456.812 20.127V18.8671C456.812 17.5228 456.647 16.1753 456.647 16.1753ZM446.782 21.6563V16.9838L451.273 19.3282L446.782 21.6563Z" fill="#141414"/>
</g>
</svg>
