<svg width="145" height="36" viewBox="0 0 145 36" fill="none" xmlns="http://www.w3.org/2000/svg">
<path d="M8.05719 9.35954C0.794915 12.7025 -1.34406 20.7717 0.782107 26.6379C2.97232 32.6834 8.99219 36.0135 14.1539 36.0007C15.1145 36.0007 16.0495 35.8854 16.9205 35.6549C21.8773 34.3228 25.0922 31.5434 26.7444 27.1374C26.8085 26.9581 26.8597 26.7659 26.9109 26.561L27.2055 25.4723H25.3867C24.6183 25.4723 23.8882 25.4851 23.1709 25.4723C22.4921 25.4723 22.0438 25.7029 21.6724 26.3049C19.6615 29.5966 16.9333 31.0823 13.3598 30.8902C10.2218 30.7109 7.96753 29.3276 6.45616 26.6635C5.99506 25.8438 5.67486 25.0368 5.48273 24.1787H9.69665C13.3854 24.1659 17.087 24.1531 20.7758 24.1274C21.8645 24.1274 22.9404 24.1146 24.0291 24.1018L26.5139 24.0762C27.4489 24.0762 27.6666 23.5127 27.6794 23.0387C27.7947 19.1578 26.7828 15.9686 24.6182 13.2661C20.6477 8.32207 13.8593 6.72104 8.09562 9.37235L8.05719 9.35954ZM22.3 19.2603H5.50835C6.35369 16.0711 10.4395 13.0099 13.8593 13.2276C17.7146 13.4454 21.762 16.4297 22.3 19.2603Z" fill="#7E1FFF"/>
<path d="M56.3197 0.799745L56.2813 0.03125H51.2221V11.3794C46.4574 7.43442 39.7587 7.22948 34.661 10.9439C30.0628 14.2996 27.9367 19.9993 29.2431 25.4684C30.0756 28.9779 32.3299 32.0903 35.4295 33.9987C37.53 35.2924 39.8739 35.9456 42.3459 35.9456C43.4859 35.9456 44.6514 35.8047 45.817 35.5229C49.9412 34.5367 52.9768 32.3336 54.834 28.9651C55.564 27.633 56.3197 26.032 56.3325 24.226C56.3582 18.347 56.3454 12.4681 56.3454 6.58907V1.22242C56.3454 1.08153 56.3453 0.940635 56.3325 0.799745H56.3197ZM51.2861 22.2792C51.2092 26.5827 48.1353 30.2459 43.9726 30.976C39.8868 31.6804 35.7753 29.1444 34.4176 25.0329C33.6363 22.6506 33.8669 20.0377 35.0709 17.8603C36.2748 15.6957 38.2473 14.1716 40.6296 13.5824C41.2829 13.4159 41.9489 13.339 42.6021 13.339C44.1775 13.339 45.7401 13.8001 47.149 14.6839C49.1471 15.9519 50.556 18.0012 51.0171 20.2939C51.1068 20.7422 51.158 21.2033 51.2092 21.6516L51.2861 22.2664V22.2792Z" fill="#7E1FFF"/>
<path d="M115.443 29.6077V28.5958C115.443 26.7771 115.431 24.9455 115.405 23.1267C115.405 22.8578 115.405 22.5888 115.405 22.307C115.405 21.3976 115.405 20.4498 115.251 19.5276C114.585 15.6467 112.459 12.3678 109.257 10.3057C106.029 8.23074 101.995 7.61594 98.1778 8.61499C91.1461 10.4722 86.7785 17.5295 88.2258 24.6765C89.2889 29.9023 92.4525 33.5398 97.3965 35.1793C98.9591 35.6916 100.47 35.9606 101.956 35.9606C104.992 35.9606 107.848 34.8719 110.499 32.7073C110.499 33.194 110.499 33.6551 110.487 34.1034C110.487 34.3852 110.487 34.795 110.794 35.0896C111.127 35.4226 111.601 35.397 111.755 35.397C112.536 35.3586 113.356 35.3586 114.188 35.397C114.342 35.397 114.816 35.4226 115.149 35.0896C115.456 34.795 115.482 34.398 115.469 34.129C115.456 33.1812 115.469 32.2334 115.469 31.2856V29.6077H115.443ZM110.499 22.1661C110.499 24.5356 109.59 26.7643 107.925 28.4293C106.273 30.0944 104.057 31.0038 101.687 31.0038C99.4714 31.0038 97.3709 30.1072 95.7571 28.4934C94.0536 26.7899 93.1186 24.51 93.1186 22.0893C93.1186 17.1965 97.0379 13.2131 101.854 13.2131C106.618 13.2131 110.499 17.2349 110.499 22.1661Z" fill="#7E1FFF"/>
<path d="M144.736 31.2728V29.6077V28.7752C144.736 26.8924 144.723 25.0095 144.698 23.1139C144.698 22.8449 144.698 22.576 144.698 22.307C144.698 21.3976 144.698 20.4498 144.544 19.5276C143.878 15.6467 141.752 12.3678 138.55 10.3057C135.322 8.23074 131.288 7.61594 127.471 8.61499C120.439 10.4722 116.071 17.5295 117.519 24.6765C118.582 29.9023 121.745 33.5398 126.689 35.1793C128.252 35.6916 129.763 35.9606 131.249 35.9606C134.285 35.9606 137.141 34.8719 139.792 32.7073C139.792 33.194 139.792 33.6551 139.779 34.1034C139.779 34.3852 139.78 34.795 140.087 35.0896C140.42 35.4226 140.894 35.397 141.048 35.397C141.829 35.3586 142.649 35.3586 143.481 35.397C143.635 35.397 144.109 35.4226 144.442 35.0896C144.736 34.795 144.775 34.398 144.762 34.1162C144.749 33.1684 144.762 32.2078 144.762 31.26L144.736 31.2728ZM139.792 22.1533C139.792 24.5228 138.883 26.7515 137.218 28.4165C135.566 30.0816 133.35 30.991 130.98 30.991C128.764 30.991 126.664 30.0944 125.05 28.4806C123.347 26.7771 122.412 24.4972 122.412 22.0765C122.412 17.1837 126.331 13.2003 131.147 13.2003C135.911 13.2003 139.792 17.2221 139.792 22.1533Z" fill="#7E1FFF"/>
<path d="M69.589 31.3622C69.1151 31.3237 68.7565 31.2597 68.4363 31.1572C66.7968 30.6705 65.7594 29.1207 65.7466 27.097C65.7338 24.4585 65.7338 21.82 65.7466 19.1815C65.7466 17.3499 65.7466 15.5312 65.7466 13.6099C66.8225 13.6099 67.8984 13.6099 68.9742 13.6099H71.459V8.75562L70.6393 8.71719C70.4984 8.71719 70.3575 8.70438 70.2166 8.70438H65.8362C65.8362 8.70438 65.7466 8.70438 65.7081 8.70438C65.7081 8.66596 65.7081 8.62753 65.7081 8.5763V7.00089C65.7081 5.09246 65.7081 3.19684 65.7081 1.28841C65.7081 1.00663 65.6825 0.609571 65.3751 0.314981C65.0421 -0.00522494 64.581 0.00758331 64.4273 0.00758331C63.582 0.0460081 62.7238 0.0460081 61.8785 0.00758331C61.6095 -0.0180332 61.2253 0.00758329 60.9307 0.302173C60.6361 0.583954 60.5977 0.993818 60.5977 1.26279C60.5977 4.77225 60.5977 8.29452 60.5977 11.804C60.5977 17.2859 60.5977 22.7678 60.6233 28.2498C60.6233 30.9779 61.8913 33.1169 64.248 34.4233C65.516 35.1278 66.9634 35.5633 68.654 35.7298C69.1279 35.781 69.6147 35.8066 70.1014 35.8322L71.4462 35.9091V31.3237H70.3575C70.0758 31.3237 69.8196 31.3366 69.5634 31.3237L69.589 31.3622Z" fill="#7E1FFF"/>
<path d="M86.1622 8.29256C83.7543 8.47187 81.7178 9.25318 79.9759 10.6621C79.9759 10.3547 79.9759 10.0473 79.9503 9.72708C79.9118 9.31722 79.5404 8.72804 79.0152 8.71523C78.1571 8.68961 77.3118 8.68961 76.4536 8.68961H75.0703V35.1899H80.2961V28.9779C80.2961 25.8399 80.2961 22.7146 80.2961 19.5766C80.2961 18.4879 80.5651 17.4376 81.0902 16.4642C82.0252 14.7351 83.575 13.6848 85.8036 13.2878C86.1238 13.2237 86.8027 12.9163 86.8155 12.34C86.8411 11.4818 86.8411 10.6108 86.8411 9.71427V8.22852L86.1494 8.27975L86.1622 8.29256Z" fill="#7E1FFF"/>
</svg>
