<svg width="24" height="24" viewBox="0 0 24 24" fill="none" xmlns="http://www.w3.org/2000/svg">
<path d="M9.00195 9H9.01195M15.002 15H15.012M16.002 8L8.00195 16M9.20385 20.6009C9.5316 20.5575 9.86269 20.6464 10.1238 20.8475L11.327 21.7708C11.7248 22.0764 12.278 22.0764 12.6747 21.7708L13.9235 20.812C14.1568 20.6331 14.4512 20.5542 14.7423 20.5931L16.3044 20.7986C16.801 20.8642 17.2798 20.5875 17.4721 20.1242L18.0731 18.6709C18.1853 18.3987 18.4009 18.1832 18.6731 18.0709L20.1263 17.4698C20.5896 17.2787 20.8662 16.7988 20.8007 16.3021L20.6029 14.7966C20.5596 14.4688 20.6485 14.1377 20.8496 13.8766L21.7728 12.6733C22.0783 12.2755 22.0783 11.7222 21.7728 11.3256L20.814 10.0767C20.6351 9.84339 20.5562 9.54896 20.5951 9.25785L20.8007 7.69568C20.8662 7.19902 20.5896 6.72015 20.1263 6.52793L18.6731 5.92684C18.4009 5.81462 18.1853 5.59907 18.0731 5.32685L17.4721 3.87356C17.281 3.41024 16.801 3.13358 16.3044 3.19913L14.7423 3.40468C14.4512 3.44468 14.1568 3.36579 13.9246 3.18802L12.6758 2.22916C12.278 1.92361 11.7248 1.92361 11.3281 2.22916L10.0793 3.18802C9.84602 3.36579 9.5516 3.44468 9.26051 3.40691L7.69842 3.20136C7.2018 3.1358 6.72295 3.41246 6.53074 3.87578L5.93079 5.32907C5.81747 5.60018 5.60193 5.81573 5.33084 5.92906L3.87763 6.52904C3.41434 6.72126 3.13769 7.20013 3.20324 7.69679L3.40878 9.25897C3.44655 9.55007 3.36767 9.8445 3.18991 10.0767L2.2311 11.3256C1.92557 11.7233 1.92557 12.2767 2.2311 12.6733L3.18991 13.9222C3.36878 14.1555 3.44767 14.4499 3.40878 14.741L3.20324 16.3032C3.13769 16.7999 3.41434 17.2787 3.87763 17.471L5.33084 18.0721C5.60304 18.1843 5.81858 18.3998 5.93079 18.672L6.53185 20.1253C6.72295 20.5887 7.20291 20.8653 7.69953 20.7998L9.20385 20.6009ZM9.50195 9C9.50195 9.27614 9.2781 9.5 9.00195 9.5C8.72581 9.5 8.50195 9.27614 8.50195 9C8.50195 8.72386 8.72581 8.5 9.00195 8.5C9.2781 8.5 9.50195 8.72386 9.50195 9ZM15.502 15C15.502 15.2761 15.2781 15.5 15.002 15.5C14.7258 15.5 14.502 15.2761 14.502 15C14.502 14.7239 14.7258 14.5 15.002 14.5C15.2781 14.5 15.502 14.7239 15.502 15Z" stroke="#79C979" stroke-width="2" stroke-linecap="round" stroke-linejoin="round"/>
</svg>
