<svg width="38" height="38" viewBox="0 0 38 38" fill="none" xmlns="http://www.w3.org/2000/svg">
<path d="M18.5 38C28.7173 38 37 29.7173 37 19.5C37 9.28273 28.7173 1 18.5 1C8.28273 1 0 9.28273 0 19.5C0 29.7173 8.28273 38 18.5 38Z" fill="#EEEEEE"/>
<mask id="mask0_209_2739" style="mask-type:luminance" maskUnits="userSpaceOnUse" x="10" y="11" width="17" height="17">
<path d="M26.8125 11.1875H10.1875V27.8125H26.8125V11.1875Z" fill="white"/>
</mask>
<g mask="url(#mask0_209_2739)">
<path d="M18.5 11.1875C13.9086 11.1875 10.1875 14.9086 10.1875 19.5C10.1875 23.0231 12.3793 26.0299 15.4705 27.241C15.399 26.5819 15.3309 25.5753 15.4997 24.8577C15.6523 24.2083 16.4738 20.7274 16.4738 20.7274C16.4738 20.7274 16.2238 20.2306 16.2238 19.4935C16.2238 18.3375 16.8927 17.4738 17.7272 17.4738C18.4351 17.4738 18.7792 18.0063 18.7792 18.646C18.7792 19.3604 18.3247 20.4254 18.0909 21.4125C17.896 22.2405 18.5065 22.9159 19.3215 22.9159C20.7989 22.9159 21.9354 21.3573 21.9354 19.1104C21.9354 17.1199 20.5067 15.7269 18.4643 15.7269C16.1004 15.7269 14.7107 17.4998 14.7107 19.3344C14.7107 20.0488 14.9867 20.8151 15.3309 21.2307C15.399 21.3119 15.4088 21.3865 15.3893 21.4677C15.3276 21.7307 15.1847 22.2957 15.1588 22.4094C15.123 22.562 15.0386 22.5945 14.8795 22.5198C13.8405 22.036 13.191 20.5196 13.191 19.2987C13.191 16.675 15.0971 14.269 18.6818 14.269C21.5652 14.269 23.8057 16.3244 23.8057 19.0714C23.8057 21.9353 22.0003 24.2407 19.4936 24.2407C18.6526 24.2407 17.8603 23.8024 17.5876 23.2861C17.5876 23.2861 17.1719 24.8739 17.0713 25.2635C16.883 25.9844 16.3764 26.8903 16.0387 27.4423C16.818 27.6826 17.6428 27.8125 18.5 27.8125C23.0914 27.8125 26.8125 24.0914 26.8125 19.5C26.8125 14.9086 23.0914 11.1875 18.5 11.1875Z" fill="#141414"/>
</g>
</svg>
