<svg width="38" height="38" viewBox="0 0 38 38" fill="none" xmlns="http://www.w3.org/2000/svg">
<path d="M18.5 38C28.7173 38 37 29.7173 37 19.5C37 9.28273 28.7173 1 18.5 1C8.28273 1 0 9.28273 0 19.5C0 29.7173 8.28273 38 18.5 38Z" fill="#EEEEEE"/>
<mask id="mask0_209_2729" style="mask-type:luminance" maskUnits="userSpaceOnUse" x="10" y="11" width="17" height="17">
<path d="M26.8125 11.1875H10.1875V27.8125H26.8125V11.1875Z" fill="white"/>
</mask>
<g mask="url(#mask0_209_2729)">
<path d="M18.5 12.6844C20.721 12.6844 20.984 12.6941 21.8575 12.7331C22.6692 12.7688 23.1076 12.9052 23.3998 13.0188C23.7862 13.1682 24.0655 13.35 24.3545 13.639C24.6467 13.9313 24.8253 14.2073 24.9747 14.5937C25.0883 14.8859 25.2247 15.3275 25.2604 16.136C25.2994 17.0127 25.3091 17.2758 25.3091 19.4935C25.3091 21.7145 25.2994 21.9775 25.2604 22.851C25.2247 23.6627 25.0883 24.1011 24.9747 24.3933C24.8253 24.7797 24.6435 25.059 24.3545 25.348C24.0622 25.6402 23.7862 25.8188 23.3998 25.9682C23.1076 26.0818 22.666 26.2182 21.8575 26.2539C20.9808 26.2929 20.7177 26.3026 18.5 26.3026C16.279 26.3026 16.016 26.2929 15.1425 26.2539C14.3308 26.2182 13.8924 26.0818 13.6002 25.9682C13.2138 25.8188 12.9345 25.637 12.6455 25.348C12.3533 25.0557 12.1747 24.7797 12.0253 24.3933C11.9117 24.1011 11.7753 23.6595 11.7396 22.851C11.7006 21.9743 11.6909 21.7113 11.6909 19.4935C11.6909 17.2725 11.7006 17.0095 11.7396 16.136C11.7753 15.3243 11.9117 14.8859 12.0253 14.5937C12.1747 14.2073 12.3565 13.928 12.6455 13.639C12.9378 13.3468 13.2138 13.1682 13.6002 13.0188C13.8924 12.9052 14.334 12.7688 15.1425 12.7331C16.016 12.6941 16.279 12.6844 18.5 12.6844ZM18.5 11.1875C16.2433 11.1875 15.9608 11.1972 15.0743 11.2362C14.1911 11.2752 13.5839 11.418 13.0579 11.6226C12.5092 11.8369 12.0448 12.1194 11.5837 12.5837C11.1194 13.0448 10.8369 13.5092 10.6226 14.0547C10.418 14.5839 10.2752 15.1879 10.2362 16.0711C10.1972 16.9608 10.1875 17.2433 10.1875 19.5C10.1875 21.7567 10.1972 22.0392 10.2362 22.9257C10.2752 23.8089 10.418 24.4161 10.6226 24.9421C10.8369 25.4908 11.1194 25.9552 11.5837 26.4163C12.0448 26.8773 12.5092 27.1631 13.0547 27.3741C13.5839 27.5787 14.1879 27.7216 15.0711 27.7605C15.9575 27.7995 16.24 27.8093 18.4968 27.8093C20.7535 27.8093 21.036 27.7995 21.9224 27.7605C22.8056 27.7216 23.4128 27.5787 23.9388 27.3741C24.4844 27.1631 24.9487 26.8773 25.4098 26.4163C25.8708 25.9552 26.1566 25.4908 26.3677 24.9453C26.5722 24.4161 26.7151 23.8121 26.7541 22.9289C26.793 22.0425 26.8028 21.76 26.8028 19.5032C26.8028 17.2465 26.793 16.964 26.7541 16.0776C26.7151 15.1944 26.5722 14.5872 26.3677 14.0612C26.1631 13.5092 25.8806 13.0448 25.4163 12.5837C24.9552 12.1227 24.4908 11.8369 23.9453 11.6259C23.4161 11.4213 22.8121 11.2784 21.9289 11.2395C21.0392 11.1972 20.7567 11.1875 18.5 11.1875Z" fill="#141414"/>
<path d="M18.5004 15.2305C16.143 15.2305 14.2305 17.143 14.2305 19.5004C14.2305 21.8578 16.143 23.7703 18.5004 23.7703C20.8578 23.7703 22.7703 21.8578 22.7703 19.5004C22.7703 17.143 20.8578 15.2305 18.5004 15.2305ZM18.5004 22.2701C16.971 22.2701 15.7306 21.0297 15.7306 19.5004C15.7306 17.971 16.971 16.7306 18.5004 16.7306C20.0298 16.7306 21.2702 17.971 21.2702 19.5004C21.2702 21.0297 20.0298 22.2701 18.5004 22.2701Z" fill="#141414"/>
<path d="M23.9361 15.0613C23.9361 15.6133 23.488 16.0582 22.9392 16.0582C22.3872 16.0582 21.9424 15.6101 21.9424 15.0613C21.9424 14.5093 22.3905 14.0645 22.9392 14.0645C23.488 14.0645 23.9361 14.5125 23.9361 15.0613Z" fill="#141414"/>
</g>
</svg>
