<svg width="38" height="38" viewBox="0 0 38 38" fill="none" xmlns="http://www.w3.org/2000/svg">
<path d="M18.5 38C28.7173 38 37 29.7173 37 19.5C37 9.28273 28.7173 1 18.5 1C8.28273 1 0 9.28273 0 19.5C0 29.7173 8.28273 38 18.5 38Z" fill="#EEEEEE"/>
<mask id="mask0_209_2755" style="mask-type:luminance" maskUnits="userSpaceOnUse" x="10" y="11" width="17" height="17">
<path d="M26.8125 11.1875H10.1875V27.8125H26.8125V11.1875Z" fill="white"/>
</mask>
<g mask="url(#mask0_209_2755)">
<path d="M26.6469 16.1753C26.6469 16.1753 26.4845 15.0291 25.9845 14.5258C25.3513 13.8634 24.6435 13.8601 24.3188 13.8211C21.9938 13.6523 18.5032 13.6523 18.5032 13.6523H18.4968C18.4968 13.6523 15.0062 13.6523 12.6813 13.8211C12.3565 13.8601 11.6487 13.8634 11.0155 14.5258C10.5155 15.0291 10.3563 16.1753 10.3563 16.1753C10.3563 16.1753 10.1875 17.5228 10.1875 18.8671V20.127C10.1875 21.4712 10.3531 22.8188 10.3531 22.8188C10.3531 22.8188 10.5155 23.965 11.0123 24.4683C11.6454 25.1307 12.4767 25.108 12.8469 25.1794C14.1781 25.306 18.5 25.345 18.5 25.345C18.5 25.345 21.9938 25.3385 24.3188 25.1729C24.6435 25.1339 25.3513 25.1307 25.9845 24.4683C26.4845 23.965 26.6469 22.8188 26.6469 22.8188C26.6469 22.8188 26.8125 21.4745 26.8125 20.127V18.8671C26.8125 17.5228 26.6469 16.1753 26.6469 16.1753ZM16.7823 21.6563V16.9838L21.273 19.3282L16.7823 21.6563Z" fill="#141414"/>
</g>
</svg>
