<svg width="38" height="38" viewBox="0 0 38 38" fill="none" xmlns="http://www.w3.org/2000/svg">
<path d="M18.5 38C28.7173 38 37 29.7173 37 19.5C37 9.28273 28.7173 1 18.5 1C8.28273 1 0 9.28273 0 19.5C0 29.7173 8.28273 38 18.5 38Z" fill="#EEEEEE"/>
<mask id="mask0_209_2747" style="mask-type:luminance" maskUnits="userSpaceOnUse" x="10" y="11" width="17" height="17">
<path d="M26.8125 11.1875H10.1875V27.8125H26.8125V11.1875Z" fill="white"/>
</mask>
<g mask="url(#mask0_209_2747)">
<path d="M25.5819 11.1875H11.4149C10.7363 11.1875 10.1875 11.7233 10.1875 12.3857V26.6111C10.1875 27.2735 10.7363 27.8125 11.4149 27.8125H25.5819C26.2605 27.8125 26.8125 27.2735 26.8125 26.6143V12.3857C26.8125 11.7233 26.2605 11.1875 25.5819 11.1875ZM15.1198 25.3545H12.652V17.4186H15.1198V25.3545ZM13.8859 16.3374C13.0936 16.3374 12.454 15.6977 12.454 14.9086C12.454 14.1196 13.0936 13.4799 13.8859 13.4799C14.675 13.4799 15.3146 14.1196 15.3146 14.9086C15.3146 15.6944 14.675 16.3374 13.8859 16.3374ZM24.3545 25.3545H21.8899V21.4969C21.8899 20.578 21.8737 19.3928 20.6073 19.3928C19.3248 19.3928 19.1299 20.3962 19.1299 21.432V25.3545H16.6687V17.4186H19.0325V18.5031H19.065C19.3929 17.8797 20.1982 17.2206 21.3964 17.2206C23.8934 17.2206 24.3545 18.8636 24.3545 21.0001V25.3545Z" fill="#141414"/>
</g>
</svg>
