<svg width="38" height="38" viewBox="0 0 38 38" fill="none" xmlns="http://www.w3.org/2000/svg">
<path d="M18.5 38C28.7173 38 37 29.7173 37 19.5C37 9.28273 28.7173 1 18.5 1C8.28273 1 0 9.28273 0 19.5C0 29.7173 8.28273 38 18.5 38Z" fill="#EEEEEE"/>
<mask id="mask0_209_2717" style="mask-type:luminance" maskUnits="userSpaceOnUse" x="10" y="11" width="17" height="17">
<path d="M26.8125 11.1875H10.1875V27.8125H26.8125V11.1875Z" fill="white"/>
</mask>
<g mask="url(#mask0_209_2717)">
<path d="M18.5 11.1875C13.9092 11.1875 10.1875 14.9092 10.1875 19.5C10.1875 23.3982 12.8714 26.6694 16.492 27.5678V22.0403H14.778V19.5H16.492V18.4054C16.492 15.5762 17.7725 14.2648 20.5502 14.2648C21.0769 14.2648 21.9856 14.3682 22.3573 14.4713V16.7738C22.1612 16.7532 21.8203 16.7429 21.3971 16.7429C20.0342 16.7429 19.5075 17.2593 19.5075 18.6016V19.5H22.2227L21.7562 22.0403H19.5075V27.7517C23.6235 27.2546 26.8128 23.75 26.8128 19.5C26.8125 14.9092 23.0908 11.1875 18.5 11.1875Z" fill="#141414"/>
</g>
</svg>
